<?xml version="1.0" encoding="utf-8"?>
<!-- Generator: Adobe Illustrator 22.0.0, SVG Export Plug-In . SVG Version: 6.00 Build 0)  -->
<svg version="1.1" id="Layer_1" xmlns="http://www.w3.org/2000/svg" xmlns:xlink="http://www.w3.org/1999/xlink" x="0px" y="0px"
	 viewBox="0 0 200 200" style="enable-background:new 0 0 200 200;" xml:space="preserve">
<style type="text/css">
	.st0{fill-rule:evenodd;clip-rule:evenodd;fill:#F1673A;}
	.st1{fill-rule:evenodd;clip-rule:evenodd;fill:#146734;}
</style>
<rect x="0" class="st0" width="200" height="200"/>
<g>
	<polygon class="st1" points="99.6,200 94.5,200 89.5,199.5 84.5,199 79.5,198.1 74.6,196.9 70,195.5 65.3,194 60.7,192.3 
		56.4,190.2 52,187.9 47.7,185.5 43.8,182.9 39.8,180.2 36,177.2 32.4,174.1 28.9,170.7 25.7,167.2 22.4,163.6 19.5,159.8 
		16.7,155.9 14.1,151.9 11.7,147.7 9.5,143.4 7.4,138.9 5.7,134.5 4.1,129.8 2.7,125 1.5,120.1 0.7,115.3 0.1,110.3 -0.4,105.1 
		-0.4,100.1 -0.4,94.9 0.1,89.9 0.7,84.9 1.5,79.9 2.7,75.1 4.1,70.4 5.7,65.8 7.4,61.1 9.5,56.8 11.7,52.5 14.1,48.2 16.7,44.2 
		19.5,40.2 22.4,36.4 25.7,32.8 28.9,29.4 32.4,26.1 36,23 39.8,19.9 43.8,17.1 47.7,14.5 52,12.1 56.4,9.9 60.7,8 65.3,6.1 70,4.5 
		74.6,3.1 79.5,2.1 84.5,1.2 89.5,0.5 94.5,0.2 99.6,0 104.8,0.2 109.8,0.5 114.8,1.2 119.8,2.1 124.6,3.1 129.3,4.5 133.9,6.1 
		138.4,8 142.9,9.9 147.2,12.1 151.4,14.5 155.5,17.1 159.5,19.9 163.2,23 166.9,26.1 170.3,29.4 173.6,32.8 176.7,36.4 179.8,40.2 
		182.6,44.2 185.1,48.2 187.6,52.5 189.8,56.8 191.7,61.1 193.6,65.8 195.1,70.4 196.5,75.1 197.6,79.9 198.4,84.9 199.1,89.9 
		199.5,94.9 199.6,100.1 199.5,105.1 199.1,110.3 198.4,115.3 197.6,120.1 196.5,125 195.1,129.8 193.6,134.5 191.7,138.9 
		189.8,143.4 187.6,147.7 185.1,151.9 182.6,155.9 179.8,159.8 176.7,163.6 173.6,167.2 170.3,170.7 166.9,174.1 163.2,177.2 
		159.5,180.2 155.5,182.9 151.4,185.5 147.2,187.9 142.9,190.2 138.4,192.3 133.9,194 129.3,195.5 124.6,196.9 119.8,198.1 
		114.8,199 109.8,199.5 104.8,200 99.6,200 	"/>
	<polygon class="st0" points="48.6,48.9 100.1,48.9 151.7,48.9 141.7,52.1 132.4,55.2 123.8,58.4 115.8,61.5 108.4,64.7 101.7,67.8 
		95.7,71 90.1,74.2 87.7,75.8 85.3,77.3 83.2,78.9 81.2,80.4 79.3,82 77.7,83.5 76.2,85.3 74.8,86.8 73.6,88.4 72.6,89.9 71.7,91.5 
		71,93 70.3,94.6 70,96.1 69.8,97.9 69.6,99.4 69.8,101 70,102.5 70.3,104.1 70.8,105.6 71.7,107.2 72.6,108.9 73.6,110.5 74.8,112 
		76.2,113.6 77.6,115.1 79.3,116.7 81.2,118.2 83.1,119.8 85.3,121.5 87.6,123.1 90.1,124.6 95.5,127.7 101.7,130.8 108.4,134.1 
		115.7,137.2 123.8,140.3 132.4,143.4 141.7,146.7 151.5,149.8 100,149.8 48.6,149.8 48.6,48.9 	"/>
</g>
</svg>
